<?xml version="1.0" encoding="UTF-8"?>
<!DOCTYPE svg PUBLIC "-//W3C//DTD SVG 1.1//EN" "http://www.w3.org/Graphics/SVG/1.1/DTD/svg11.dtd">
<svg xmlns="http://www.w3.org/2000/svg" version="1.1" width="500px" height="500px" style="shape-rendering:geometricPrecision; text-rendering:geometricPrecision; image-rendering:optimizeQuality; fill-rule:evenodd; clip-rule:evenodd" xmlns:xlink="http://www.w3.org/1999/xlink">
<g><path style="opacity:1" fill="#fefefe" d="M -0.5,-0.5 C 166.167,-0.5 332.833,-0.5 499.5,-0.5C 499.5,112.167 499.5,224.833 499.5,337.5C 435.5,337.5 371.5,337.5 307.5,337.5C 307.167,337.5 306.833,337.5 306.5,337.5C 305.71,336.206 304.71,335.039 303.5,334C 314.796,323.364 314.13,313.697 301.5,305C 302.317,303.51 303.15,302.01 304,300.5C 343.432,267.958 359.765,226.292 353,175.5C 341.061,132.408 314.561,102.408 273.5,85.5C 270.495,83.7234 267.162,82.7234 263.5,82.5C 207.401,70.975 162.568,88.3083 129,134.5C 119.786,148.924 113.953,164.591 111.5,181.5C 110.057,187.1 109.39,192.933 109.5,199C 109.501,202.683 109.835,206.183 110.5,209.5C 110.849,216.961 111.849,224.294 113.5,231.5C 113.677,235.708 115.01,239.374 117.5,242.5C 121.35,253.2 126.516,263.2 133,272.5C 142.671,284.003 152.838,295.003 163.5,305.5C 150.915,314.043 150.248,323.543 161.5,334C 151.19,342.584 150.857,351.584 160.5,361C 163.644,362.692 166.977,363.858 170.5,364.5C 165.151,372.232 165.318,379.898 171,387.5C 172.579,389.041 174.413,390.208 176.5,391C 182.167,391.333 187.833,391.667 193.5,392C 193.571,396.717 193.738,401.55 194,406.5C 195.968,410.968 199.134,414.301 203.5,416.5C 203.5,444.167 203.5,471.833 203.5,499.5C 135.5,499.5 67.5,499.5 -0.5,499.5C -0.5,332.833 -0.5,166.167 -0.5,-0.5 Z"/></g>
<g><path style="opacity:1" fill="#282524" d="M 263.5,82.5 C 266.505,84.2766 269.838,85.2766 273.5,85.5C 314.561,102.408 341.061,132.408 353,175.5C 359.765,226.292 343.432,267.958 304,300.5C 303.15,302.01 302.317,303.51 301.5,305C 314.13,313.697 314.796,323.364 303.5,334C 304.71,335.039 305.71,336.206 306.5,337.5C 290.833,337.5 275.167,337.5 259.5,337.5C 259.5,334.5 259.5,331.5 259.5,328.5C 272.504,328.667 285.504,328.5 298.5,328C 299.056,327.617 299.389,327.117 299.5,326.5C 304.753,322.377 304.753,318.211 299.5,314C 286.24,312.556 272.907,312.056 259.5,312.5C 259.5,309.833 259.5,307.167 259.5,304.5C 270.52,304.832 281.52,304.499 292.5,303.5C 294.506,299.487 297.006,295.82 300,292.5C 324.519,273.781 339.353,249.114 344.5,218.5C 345.222,218.082 345.722,217.416 346,216.5C 346.497,213.854 346.664,211.187 346.5,208.5C 346.748,199.46 346.415,190.46 345.5,181.5C 345.59,178.848 344.924,176.515 343.5,174.5C 332.862,135.534 308.862,108.534 271.5,93.5C 268.495,91.7234 265.162,90.7234 261.5,90.5C 243.53,85.7222 225.53,85.3889 207.5,89.5C 204.848,89.4095 202.515,90.0762 200.5,91.5C 197.084,91.5275 194.084,92.5275 191.5,94.5C 150.067,111.446 125.901,142.112 119,186.5C 117.826,200.978 118.66,215.312 121.5,229.5C 121.677,233.708 123.01,237.374 125.5,240.5C 134.089,263.32 148.256,281.987 168,296.5C 169.001,299.173 170.501,301.507 172.5,303.5C 182.812,304.499 193.145,304.832 203.5,304.5C 203.5,307.167 203.5,309.833 203.5,312.5C 191.495,312.333 179.495,312.5 167.5,313C 159.927,317.187 159.594,321.854 166.5,327C 178.829,327.5 191.162,327.667 203.5,327.5C 203.5,331.833 203.5,336.167 203.5,340.5C 191.162,340.333 178.829,340.5 166.5,341C 159.848,345.617 159.848,350.283 166.5,355C 178.829,355.5 191.162,355.667 203.5,355.5C 203.5,359.833 203.5,364.167 203.5,368.5C 195.16,368.334 186.827,368.5 178.5,369C 173.257,373.588 173.257,378.255 178.5,383C 186.827,383.5 195.16,383.666 203.5,383.5C 203.5,387.5 203.5,391.5 203.5,395.5C 203.5,395.833 203.5,396.167 203.5,396.5C 200.833,399.833 200.833,403.167 203.5,406.5C 203.5,406.833 203.5,407.167 203.5,407.5C 203.5,410.5 203.5,413.5 203.5,416.5C 199.134,414.301 195.968,410.968 194,406.5C 193.738,401.55 193.571,396.717 193.5,392C 187.833,391.667 182.167,391.333 176.5,391C 174.413,390.208 172.579,389.041 171,387.5C 165.318,379.898 165.151,372.232 170.5,364.5C 166.977,363.858 163.644,362.692 160.5,361C 150.857,351.584 151.19,342.584 161.5,334C 150.248,323.543 150.915,314.043 163.5,305.5C 152.838,295.003 142.671,284.003 133,272.5C 126.516,263.2 121.35,253.2 117.5,242.5C 116.538,238.605 115.204,234.939 113.5,231.5C 111.849,224.294 110.849,216.961 110.5,209.5C 110.434,200.148 110.768,190.815 111.5,181.5C 113.953,164.591 119.786,148.924 129,134.5C 162.568,88.3083 207.401,70.975 263.5,82.5 Z"/></g>
<g><path style="opacity:1" fill="#b3b3b3" d="M 263.5,82.5 C 267.162,82.7234 270.495,83.7234 273.5,85.5C 269.838,85.2766 266.505,84.2766 263.5,82.5 Z"/></g>
<g><path style="opacity:1" fill="#f9e079" d="M 261.5,90.5 C 264.505,92.2766 267.838,93.2766 271.5,93.5C 308.862,108.534 332.862,135.534 343.5,174.5C 343.41,177.152 344.076,179.485 345.5,181.5C 346.415,190.46 346.748,199.46 346.5,208.5C 345.419,211.627 344.753,214.96 344.5,218.5C 339.353,249.114 324.519,273.781 300,292.5C 297.006,295.82 294.506,299.487 292.5,303.5C 281.52,304.499 270.52,304.832 259.5,304.5C 259.5,291.5 259.5,278.5 259.5,265.5C 278.874,266.625 288.04,257.625 287,238.5C 284.096,229.93 278.263,224.43 269.5,222C 251.97,219.391 240.97,226.558 236.5,243.5C 233.167,243.5 229.833,243.5 226.5,243.5C 222.954,229.035 213.621,221.702 198.5,221.5C 187.166,221.991 179.666,227.658 176,238.5C 175.082,257.749 184.249,266.749 203.5,265.5C 203.5,278.5 203.5,291.5 203.5,304.5C 193.145,304.832 182.812,304.499 172.5,303.5C 170.501,301.507 169.001,299.173 168,296.5C 148.256,281.987 134.089,263.32 125.5,240.5C 124.538,236.605 123.204,232.939 121.5,229.5C 118.66,215.312 117.826,200.978 119,186.5C 125.901,142.112 150.067,111.446 191.5,94.5C 194.855,94.3104 197.855,93.3104 200.5,91.5C 203.152,91.5905 205.485,90.9238 207.5,89.5C 225.53,85.3889 243.53,85.7222 261.5,90.5 Z"/></g>
<g><path style="opacity:1" fill="#bba85f" d="M 207.5,89.5 C 205.485,90.9238 203.152,91.5905 200.5,91.5C 202.515,90.0762 204.848,89.4095 207.5,89.5 Z"/></g>
<g><path style="opacity:1" fill="#63593b" d="M 261.5,90.5 C 265.162,90.7234 268.495,91.7234 271.5,93.5C 267.838,93.2766 264.505,92.2766 261.5,90.5 Z"/></g>
<g><path style="opacity:1" fill="#b8a65e" d="M 200.5,91.5 C 197.855,93.3104 194.855,94.3104 191.5,94.5C 194.084,92.5275 197.084,91.5275 200.5,91.5 Z"/></g>
<g><path style="opacity:1" fill="#f9f7e2" d="M 266.5,114.5 C 314.068,125.239 335.568,154.906 331,203.5C 328.913,217.77 324.079,230.937 316.5,243C 312.037,244.203 309.37,242.536 308.5,238C 322.352,214.12 325.185,188.954 317,162.5C 309.718,147.885 298.551,137.385 283.5,131C 277.774,128.116 271.774,125.949 265.5,124.5C 262.696,120.852 263.03,117.518 266.5,114.5 Z"/></g>
<g><path style="opacity:1" fill="#a69556" d="M 343.5,174.5 C 344.924,176.515 345.59,178.848 345.5,181.5C 344.076,179.485 343.41,177.152 343.5,174.5 Z"/></g>
<g><path style="opacity:1" fill="#777575" d="M 111.5,181.5 C 110.768,190.815 110.434,200.148 110.5,209.5C 109.835,206.183 109.501,202.683 109.5,199C 109.39,192.933 110.057,187.1 111.5,181.5 Z"/></g>
<g><path style="opacity:1" fill="#635a3b" d="M 346.5,208.5 C 346.664,211.187 346.497,213.854 346,216.5C 345.722,217.416 345.222,218.082 344.5,218.5C 344.753,214.96 345.419,211.627 346.5,208.5 Z"/></g>
<g><path style="opacity:1" fill="#dc8253" d="M 259.5,304.5 C 257.167,304.5 254.833,304.5 252.5,304.5C 252.5,289.167 252.5,273.833 252.5,258.5C 258.176,258.666 263.843,258.499 269.5,258C 278.301,254.904 281.801,248.737 280,239.5C 275.117,229.646 267.284,226.146 256.5,229C 246.935,232.958 242.602,240.125 243.5,250.5C 235.5,250.5 227.5,250.5 219.5,250.5C 220.17,239.342 215.17,232.175 204.5,229C 194.017,226.658 186.851,230.491 183,240.5C 181.458,249.925 185.291,255.758 194.5,258C 199.823,258.499 205.156,258.666 210.5,258.5C 210.5,273.833 210.5,289.167 210.5,304.5C 208.167,304.5 205.833,304.5 203.5,304.5C 203.5,291.5 203.5,278.5 203.5,265.5C 184.249,266.749 175.082,257.749 176,238.5C 179.666,227.658 187.166,221.991 198.5,221.5C 213.621,221.702 222.954,229.035 226.5,243.5C 229.833,243.5 233.167,243.5 236.5,243.5C 240.97,226.558 251.97,219.391 269.5,222C 278.263,224.43 284.096,229.93 287,238.5C 288.04,257.625 278.874,266.625 259.5,265.5C 259.5,278.5 259.5,291.5 259.5,304.5 Z"/></g>
<g><path style="opacity:1" fill="#f39022" d="M 252.5,304.5 C 252.5,307.167 252.5,309.833 252.5,312.5C 252.5,317.5 252.5,322.5 252.5,327.5C 252.5,331.833 252.5,336.167 252.5,340.5C 252.5,341.833 252.5,343.167 252.5,344.5C 268.833,344.5 285.167,344.5 301.5,344.5C 304.5,344.5 307.5,344.5 310.5,344.5C 310.5,347.167 310.5,349.833 310.5,352.5C 288.5,352.5 266.5,352.5 244.5,352.5C 244.83,336.325 244.496,320.325 243.5,304.5C 243.5,304.167 243.5,303.833 243.5,303.5C 243.5,288.5 243.5,273.5 243.5,258.5C 235.5,258.5 227.5,258.5 219.5,258.5C 219.5,273.5 219.5,288.5 219.5,303.5C 219.5,303.833 219.5,304.167 219.5,304.5C 219.5,307.167 219.5,309.833 219.5,312.5C 219.5,317.5 219.5,322.5 219.5,327.5C 219.5,331.833 219.5,336.167 219.5,340.5C 219.5,345.5 219.5,350.5 219.5,355.5C 219.5,359.833 219.5,364.167 219.5,368.5C 219.5,373.5 219.5,378.5 219.5,383.5C 219.5,386.833 219.5,390.167 219.5,393.5C 219.5,398.833 219.5,404.167 219.5,409.5C 219.5,411.5 219.5,413.5 219.5,415.5C 216.5,415.5 213.5,415.5 210.5,415.5C 210.5,413.5 210.5,411.5 210.5,409.5C 210.5,404.5 210.5,399.5 210.5,394.5C 210.5,390.833 210.5,387.167 210.5,383.5C 210.5,378.5 210.5,373.5 210.5,368.5C 210.5,364.167 210.5,359.833 210.5,355.5C 210.5,350.5 210.5,345.5 210.5,340.5C 210.5,336.167 210.5,331.833 210.5,327.5C 210.5,322.5 210.5,317.5 210.5,312.5C 210.5,309.833 210.5,307.167 210.5,304.5C 210.5,289.167 210.5,273.833 210.5,258.5C 205.156,258.666 199.823,258.499 194.5,258C 185.291,255.758 181.458,249.925 183,240.5C 186.851,230.491 194.017,226.658 204.5,229C 215.17,232.175 220.17,239.342 219.5,250.5C 227.5,250.5 235.5,250.5 243.5,250.5C 242.602,240.125 246.935,232.958 256.5,229C 267.284,226.146 275.117,229.646 280,239.5C 281.801,248.737 278.301,254.904 269.5,258C 263.843,258.499 258.176,258.666 252.5,258.5C 252.5,273.833 252.5,289.167 252.5,304.5 Z"/></g>
<g><path style="opacity:1" fill="#665c3c" d="M 121.5,229.5 C 123.204,232.939 124.538,236.605 125.5,240.5C 123.01,237.374 121.677,233.708 121.5,229.5 Z"/></g>
<g><path style="opacity:1" fill="#b0afaf" d="M 113.5,231.5 C 115.204,234.939 116.538,238.605 117.5,242.5C 115.01,239.374 113.677,235.708 113.5,231.5 Z"/></g>
<g><path style="opacity:1" fill="#db7f51" d="M 194.5,236.5 C 205.668,234.726 211.002,239.393 210.5,250.5C 205.156,250.666 199.823,250.499 194.5,250C 190.624,245.574 190.624,241.074 194.5,236.5 Z"/></g>
<g><path style="opacity:1" fill="#db7f51" d="M 258.5,236.5 C 262.457,236.008 266.123,236.675 269.5,238.5C 271.436,241.208 271.936,244.208 271,247.5C 270.097,248.701 268.931,249.535 267.5,250C 262.511,250.499 257.511,250.666 252.5,250.5C 251.268,244.31 253.268,239.643 258.5,236.5 Z"/></g>
<g><path style="opacity:1" fill="#da7f53" d="M 243.5,303.5 C 243.5,303.833 243.5,304.167 243.5,304.5C 241.167,304.5 238.833,304.5 236.5,304.5C 236.5,291.5 236.5,278.5 236.5,265.5C 233.167,265.5 229.833,265.5 226.5,265.5C 226.5,278.5 226.5,291.5 226.5,304.5C 224.167,304.5 221.833,304.5 219.5,304.5C 219.5,304.167 219.5,303.833 219.5,303.5C 220.496,289.01 220.829,274.343 220.5,259.5C 227.833,259.5 235.167,259.5 242.5,259.5C 242.171,274.343 242.504,289.01 243.5,303.5 Z"/></g>
<g><path style="opacity:1" fill="#de824a" d="M 243.5,303.5 C 242.504,289.01 242.171,274.343 242.5,259.5C 235.167,259.5 227.833,259.5 220.5,259.5C 220.829,274.343 220.496,289.01 219.5,303.5C 219.5,288.5 219.5,273.5 219.5,258.5C 227.5,258.5 235.5,258.5 243.5,258.5C 243.5,273.5 243.5,288.5 243.5,303.5 Z"/></g>
<g><path style="opacity:1" fill="#ebc16d" d="M 236.5,304.5 C 233.167,304.5 229.833,304.5 226.5,304.5C 226.5,291.5 226.5,278.5 226.5,265.5C 229.833,265.5 233.167,265.5 236.5,265.5C 236.5,278.5 236.5,291.5 236.5,304.5 Z"/></g>
<g><path style="opacity:1" fill="#fae079" d="M 227.5,266.5 C 230.167,266.5 232.833,266.5 235.5,266.5C 235.5,278.833 235.5,291.167 235.5,303.5C 232.833,303.5 230.167,303.5 227.5,303.5C 227.5,291.167 227.5,278.833 227.5,266.5 Z"/></g>
<g><path style="opacity:1" fill="#6d1f26" d="M 203.5,304.5 C 205.833,304.5 208.167,304.5 210.5,304.5C 210.5,307.167 210.5,309.833 210.5,312.5C 208.167,312.5 205.833,312.5 203.5,312.5C 203.5,309.833 203.5,307.167 203.5,304.5 Z"/></g>
<g><path style="opacity:1" fill="#722127" d="M 219.5,304.5 C 221.833,304.5 224.167,304.5 226.5,304.5C 226.5,307.167 226.5,309.833 226.5,312.5C 224.167,312.5 221.833,312.5 219.5,312.5C 219.5,309.833 219.5,307.167 219.5,304.5 Z"/></g>
<g><path style="opacity:1" fill="#282221" d="M 226.5,304.5 C 229.833,304.5 233.167,304.5 236.5,304.5C 236.5,307.167 236.5,309.833 236.5,312.5C 233.167,312.5 229.833,312.5 226.5,312.5C 226.5,309.833 226.5,307.167 226.5,304.5 Z"/></g>
<g><path style="opacity:1" fill="#732127" d="M 236.5,304.5 C 238.833,304.5 241.167,304.5 243.5,304.5C 243.5,307.167 243.5,309.833 243.5,312.5C 241.167,312.5 238.833,312.5 236.5,312.5C 236.5,309.833 236.5,307.167 236.5,304.5 Z"/></g>
<g><path style="opacity:1" fill="#6d1f26" d="M 252.5,304.5 C 254.833,304.5 257.167,304.5 259.5,304.5C 259.5,307.167 259.5,309.833 259.5,312.5C 257.167,312.5 254.833,312.5 252.5,312.5C 252.5,309.833 252.5,307.167 252.5,304.5 Z"/></g>
<g><path style="opacity:1" fill="#cccdcd" d="M 203.5,312.5 C 203.5,317.5 203.5,322.5 203.5,327.5C 191.162,327.667 178.829,327.5 166.5,327C 159.594,321.854 159.927,317.187 167.5,313C 179.495,312.5 191.495,312.333 203.5,312.5 Z"/></g>
<g><path style="opacity:1" fill="#c57a81" d="M 203.5,312.5 C 205.833,312.5 208.167,312.5 210.5,312.5C 210.5,317.5 210.5,322.5 210.5,327.5C 208.167,327.5 205.833,327.5 203.5,327.5C 203.5,322.5 203.5,317.5 203.5,312.5 Z"/></g>
<g><path style="opacity:1" fill="#c5787d" d="M 219.5,312.5 C 221.833,312.5 224.167,312.5 226.5,312.5C 226.5,317.5 226.5,322.5 226.5,327.5C 224.167,327.5 221.833,327.5 219.5,327.5C 219.5,322.5 219.5,317.5 219.5,312.5 Z"/></g>
<g><path style="opacity:1" fill="#cdcbcc" d="M 226.5,312.5 C 229.833,312.5 233.167,312.5 236.5,312.5C 236.5,317.5 236.5,322.5 236.5,327.5C 233.167,327.5 229.833,327.5 226.5,327.5C 226.5,322.5 226.5,317.5 226.5,312.5 Z"/></g>
<g><path style="opacity:1" fill="#c5787c" d="M 236.5,312.5 C 238.833,312.5 241.167,312.5 243.5,312.5C 243.5,317.5 243.5,322.5 243.5,327.5C 241.167,327.5 238.833,327.5 236.5,327.5C 236.5,322.5 236.5,317.5 236.5,312.5 Z"/></g>
<g><path style="opacity:1" fill="#c57a81" d="M 252.5,312.5 C 254.833,312.5 257.167,312.5 259.5,312.5C 259.5,317.5 259.5,322.5 259.5,327.5C 257.167,327.5 254.833,327.5 252.5,327.5C 252.5,322.5 252.5,317.5 252.5,312.5 Z"/></g>
<g><path style="opacity:1" fill="#cccece" d="M 259.5,312.5 C 272.907,312.056 286.24,312.556 299.5,314C 304.753,318.211 304.753,322.377 299.5,326.5C 286.216,327.464 272.883,327.797 259.5,327.5C 259.5,322.5 259.5,317.5 259.5,312.5 Z"/></g>
<g><path style="opacity:1" fill="#4f4d4d" d="M 299.5,326.5 C 299.389,327.117 299.056,327.617 298.5,328C 285.504,328.5 272.504,328.667 259.5,328.5C 259.5,328.167 259.5,327.833 259.5,327.5C 272.883,327.797 286.216,327.464 299.5,326.5 Z"/></g>
<g><path style="opacity:1" fill="#6e2027" d="M 203.5,327.5 C 205.833,327.5 208.167,327.5 210.5,327.5C 210.5,331.833 210.5,336.167 210.5,340.5C 208.167,340.5 205.833,340.5 203.5,340.5C 203.5,336.167 203.5,331.833 203.5,327.5 Z"/></g>
<g><path style="opacity:1" fill="#732228" d="M 219.5,327.5 C 221.833,327.5 224.167,327.5 226.5,327.5C 226.5,331.833 226.5,336.167 226.5,340.5C 224.167,340.5 221.833,340.5 219.5,340.5C 219.5,336.167 219.5,331.833 219.5,327.5 Z"/></g>
<g><path style="opacity:1" fill="#292323" d="M 226.5,327.5 C 229.833,327.5 233.167,327.5 236.5,327.5C 236.5,331.833 236.5,336.167 236.5,340.5C 233.167,340.5 229.833,340.5 226.5,340.5C 226.5,336.167 226.5,331.833 226.5,327.5 Z"/></g>
<g><path style="opacity:1" fill="#742228" d="M 236.5,327.5 C 238.833,327.5 241.167,327.5 243.5,327.5C 243.5,331.833 243.5,336.167 243.5,340.5C 241.167,340.5 238.833,340.5 236.5,340.5C 236.5,336.167 236.5,331.833 236.5,327.5 Z"/></g>
<g><path style="opacity:1" fill="#e4a5aa" d="M 307.5,337.5 C 371.5,337.5 435.5,337.5 499.5,337.5C 499.5,339.833 499.5,342.167 499.5,344.5C 499.167,344.5 498.833,344.5 498.5,344.5C 498.5,342.5 498.5,340.5 498.5,338.5C 435.167,338.5 371.833,338.5 308.5,338.5C 307.833,338.5 307.5,338.167 307.5,337.5 Z"/></g>
<g><path style="opacity:1" fill="#dc8c93" d="M 308.5,338.5 C 371.833,338.5 435.167,338.5 498.5,338.5C 498.5,340.5 498.5,342.5 498.5,344.5C 436.167,344.5 373.833,344.5 311.5,344.5C 310.529,342.517 309.529,340.517 308.5,338.5 Z"/></g>
<g><path style="opacity:1" fill="#cbcdcd" d="M 203.5,340.5 C 203.5,345.5 203.5,350.5 203.5,355.5C 191.162,355.667 178.829,355.5 166.5,355C 159.848,350.283 159.848,345.617 166.5,341C 178.829,340.5 191.162,340.333 203.5,340.5 Z"/></g>
<g><path style="opacity:1" fill="#c57a81" d="M 203.5,340.5 C 205.833,340.5 208.167,340.5 210.5,340.5C 210.5,345.5 210.5,350.5 210.5,355.5C 208.167,355.5 205.833,355.5 203.5,355.5C 203.5,350.5 203.5,345.5 203.5,340.5 Z"/></g>
<g><path style="opacity:1" fill="#c5787d" d="M 219.5,340.5 C 221.833,340.5 224.167,340.5 226.5,340.5C 226.5,345.5 226.5,350.5 226.5,355.5C 224.167,355.5 221.833,355.5 219.5,355.5C 219.5,350.5 219.5,345.5 219.5,340.5 Z"/></g>
<g><path style="opacity:1" fill="#cdcccc" d="M 226.5,340.5 C 229.833,340.5 233.167,340.5 236.5,340.5C 236.5,345.5 236.5,350.5 236.5,355.5C 233.167,355.5 229.833,355.5 226.5,355.5C 226.5,350.5 226.5,345.5 226.5,340.5 Z"/></g>
<g><path style="opacity:1" fill="#c4757b" d="M 252.5,340.5 C 267.504,340.333 282.504,340.5 297.5,341C 299.324,341.66 300.657,342.827 301.5,344.5C 285.167,344.5 268.833,344.5 252.5,344.5C 252.5,343.167 252.5,341.833 252.5,340.5 Z"/></g>
<g><path style="opacity:1" fill="#701e26" d="M 252.5,327.5 C 254.833,327.5 257.167,327.5 259.5,327.5C 259.5,327.833 259.5,328.167 259.5,328.5C 259.5,331.5 259.5,334.5 259.5,337.5C 275.167,337.5 290.833,337.5 306.5,337.5C 306.833,337.5 307.167,337.5 307.5,337.5C 307.5,338.167 307.833,338.5 308.5,338.5C 309.529,340.517 310.529,342.517 311.5,344.5C 373.664,345.499 435.998,345.832 498.5,345.5C 498.5,347.833 498.5,350.167 498.5,352.5C 435.833,352.5 373.167,352.5 310.5,352.5C 310.5,349.833 310.5,347.167 310.5,344.5C 307.5,344.5 304.5,344.5 301.5,344.5C 300.657,342.827 299.324,341.66 297.5,341C 282.504,340.5 267.504,340.333 252.5,340.5C 252.5,336.167 252.5,331.833 252.5,327.5 Z"/></g>
<g><path style="opacity:1" fill="#e28438" d="M 243.5,304.5 C 244.496,320.325 244.83,336.325 244.5,352.5C 266.5,352.5 288.5,352.5 310.5,352.5C 310.5,352.833 310.5,353.167 310.5,353.5C 306.833,353.5 303.167,353.5 299.5,353.5C 280.833,353.5 262.167,353.5 243.5,353.5C 243.5,349.167 243.5,344.833 243.5,340.5C 243.5,336.167 243.5,331.833 243.5,327.5C 243.5,322.5 243.5,317.5 243.5,312.5C 243.5,309.833 243.5,307.167 243.5,304.5 Z"/></g>
<g><path style="opacity:1" fill="#96464e" d="M 311.5,344.5 C 373.833,344.5 436.167,344.5 498.5,344.5C 498.833,344.5 499.167,344.5 499.5,344.5C 499.5,347.5 499.5,350.5 499.5,353.5C 499.167,353.5 498.833,353.5 498.5,353.5C 435.833,353.5 373.167,353.5 310.5,353.5C 310.5,353.167 310.5,352.833 310.5,352.5C 373.167,352.5 435.833,352.5 498.5,352.5C 498.5,350.167 498.5,347.833 498.5,345.5C 435.998,345.832 373.664,345.499 311.5,344.5 Z"/></g>
<g><path style="opacity:1" fill="#c3757a" d="M 236.5,340.5 C 238.833,340.5 241.167,340.5 243.5,340.5C 243.5,344.833 243.5,349.167 243.5,353.5C 262.167,353.5 280.833,353.5 299.5,353.5C 299.082,354.222 298.416,354.722 297.5,355C 277.169,355.5 256.836,355.667 236.5,355.5C 236.5,350.5 236.5,345.5 236.5,340.5 Z"/></g>
<g><path style="opacity:1" fill="#702128" d="M 299.5,353.5 C 303.167,353.5 306.833,353.5 310.5,353.5C 309.559,355.772 308.226,357.772 306.5,359.5C 305.391,359.557 304.391,359.89 303.5,360.5C 281.167,360.5 258.833,360.5 236.5,360.5C 236.5,358.833 236.5,357.167 236.5,355.5C 256.836,355.667 277.169,355.5 297.5,355C 298.416,354.722 299.082,354.222 299.5,353.5 Z"/></g>
<g><path style="opacity:1" fill="#dd8d94" d="M 310.5,353.5 C 373.167,353.5 435.833,353.5 498.5,353.5C 498.5,355.5 498.5,357.5 498.5,359.5C 434.5,359.5 370.5,359.5 306.5,359.5C 308.226,357.772 309.559,355.772 310.5,353.5 Z"/></g>
<g><path style="opacity:1" fill="#6e2128" d="M 203.5,355.5 C 205.833,355.5 208.167,355.5 210.5,355.5C 210.5,359.833 210.5,364.167 210.5,368.5C 208.167,368.5 205.833,368.5 203.5,368.5C 203.5,364.167 203.5,359.833 203.5,355.5 Z"/></g>
<g><path style="opacity:1" fill="#732328" d="M 219.5,355.5 C 221.833,355.5 224.167,355.5 226.5,355.5C 226.5,359.833 226.5,364.167 226.5,368.5C 224.167,368.5 221.833,368.5 219.5,368.5C 219.5,364.167 219.5,359.833 219.5,355.5 Z"/></g>
<g><path style="opacity:1" fill="#272323" d="M 226.5,355.5 C 229.833,355.5 233.167,355.5 236.5,355.5C 236.5,357.167 236.5,358.833 236.5,360.5C 258.833,360.5 281.167,360.5 303.5,360.5C 303.5,360.833 303.5,361.167 303.5,361.5C 300.565,362.623 297.565,363.623 294.5,364.5C 301.617,375.933 299.284,384.766 287.5,391C 282.5,391.333 277.5,391.667 272.5,392C 271.707,393.085 271.04,394.252 270.5,395.5C 273.199,406.103 269.532,413.436 259.5,417.5C 248.5,417.5 237.5,417.5 226.5,417.5C 226.5,414.833 226.5,412.167 226.5,409.5C 237.172,409.667 247.839,409.5 258.5,409C 263.069,406.459 264.569,402.625 263,397.5C 261.59,396.213 260.09,395.046 258.5,394C 247.839,393.5 237.172,393.333 226.5,393.5C 226.5,390.167 226.5,386.833 226.5,383.5C 246.34,383.83 266.007,383.497 285.5,382.5C 290.284,380.255 291.617,376.589 289.5,371.5C 288.643,370.575 287.643,369.908 286.5,369.5C 266.674,368.503 246.674,368.17 226.5,368.5C 226.5,364.167 226.5,359.833 226.5,355.5 Z"/></g>
<g><path style="opacity:1" fill="#e5a7ad" d="M 498.5,353.5 C 498.833,353.5 499.167,353.5 499.5,353.5C 499.5,355.833 499.5,358.167 499.5,360.5C 434.125,360.174 368.792,360.507 303.5,361.5C 303.5,361.167 303.5,360.833 303.5,360.5C 304.391,359.89 305.391,359.557 306.5,359.5C 370.5,359.5 434.5,359.5 498.5,359.5C 498.5,357.5 498.5,355.5 498.5,353.5 Z"/></g>
<g><path style="opacity:1" fill="#fefefe" d="M 499.5,360.5 C 499.5,406.833 499.5,453.167 499.5,499.5C 408.833,499.5 318.167,499.5 227.5,499.5C 227.5,472.5 227.5,445.5 227.5,418.5C 238.346,418.828 249.013,418.494 259.5,417.5C 269.532,413.436 273.199,406.103 270.5,395.5C 271.04,394.252 271.707,393.085 272.5,392C 277.5,391.667 282.5,391.333 287.5,391C 299.284,384.766 301.617,375.933 294.5,364.5C 297.565,363.623 300.565,362.623 303.5,361.5C 368.792,360.507 434.125,360.174 499.5,360.5 Z"/></g>
<g><path style="opacity:1" fill="#cbcdcd" d="M 203.5,368.5 C 203.5,373.5 203.5,378.5 203.5,383.5C 195.16,383.666 186.827,383.5 178.5,383C 173.257,378.255 173.257,373.588 178.5,369C 186.827,368.5 195.16,368.334 203.5,368.5 Z"/></g>
<g><path style="opacity:1" fill="#c57a81" d="M 203.5,368.5 C 205.833,368.5 208.167,368.5 210.5,368.5C 210.5,373.5 210.5,378.5 210.5,383.5C 208.167,383.5 205.833,383.5 203.5,383.5C 203.5,378.5 203.5,373.5 203.5,368.5 Z"/></g>
<g><path style="opacity:1" fill="#c5787d" d="M 219.5,368.5 C 221.833,368.5 224.167,368.5 226.5,368.5C 226.5,373.5 226.5,378.5 226.5,383.5C 224.167,383.5 221.833,383.5 219.5,383.5C 219.5,378.5 219.5,373.5 219.5,368.5 Z"/></g>
<g><path style="opacity:1" fill="#cfd1d1" d="M 286.5,369.5 C 287.643,369.908 288.643,370.575 289.5,371.5C 291.617,376.589 290.284,380.255 285.5,382.5C 266.167,382.5 246.833,382.5 227.5,382.5C 227.5,378.167 227.5,373.833 227.5,369.5C 247.167,369.5 266.833,369.5 286.5,369.5 Z"/></g>
<g><path style="opacity:1" fill="#bbbaba" d="M 226.5,368.5 C 246.674,368.17 266.674,368.503 286.5,369.5C 266.833,369.5 247.167,369.5 227.5,369.5C 227.5,373.833 227.5,378.167 227.5,382.5C 246.833,382.5 266.167,382.5 285.5,382.5C 266.007,383.497 246.34,383.83 226.5,383.5C 226.5,378.5 226.5,373.5 226.5,368.5 Z"/></g>
<g><path style="opacity:1" fill="#6d2027" d="M 203.5,383.5 C 205.833,383.5 208.167,383.5 210.5,383.5C 210.5,387.167 210.5,390.833 210.5,394.5C 208.05,394.298 205.717,394.631 203.5,395.5C 203.5,391.5 203.5,387.5 203.5,383.5 Z"/></g>
<g><path style="opacity:1" fill="#712126" d="M 219.5,383.5 C 221.833,383.5 224.167,383.5 226.5,383.5C 226.5,386.833 226.5,390.167 226.5,393.5C 224.167,393.5 221.833,393.5 219.5,393.5C 219.5,390.167 219.5,386.833 219.5,383.5 Z"/></g>
<g><path style="opacity:1" fill="#9c4f57" d="M 210.5,394.5 C 210.5,399.5 210.5,404.5 210.5,409.5C 207.812,409.834 205.479,409.168 203.5,407.5C 203.5,407.167 203.5,406.833 203.5,406.5C 203.5,403.167 203.5,399.833 203.5,396.5C 203.5,396.167 203.5,395.833 203.5,395.5C 205.717,394.631 208.05,394.298 210.5,394.5 Z"/></g>
<g><path style="opacity:1" fill="#9d4e55" d="M 219.5,393.5 C 221.833,393.5 224.167,393.5 226.5,393.5C 226.5,398.833 226.5,404.167 226.5,409.5C 224.167,409.5 221.833,409.5 219.5,409.5C 219.5,404.167 219.5,398.833 219.5,393.5 Z"/></g>
<g><path style="opacity:1" fill="#7a7b7e" d="M 226.5,393.5 C 237.172,393.333 247.839,393.5 258.5,394C 260.09,395.046 261.59,396.213 263,397.5C 264.569,402.625 263.069,406.459 258.5,409C 247.839,409.5 237.172,409.667 226.5,409.5C 226.5,404.167 226.5,398.833 226.5,393.5 Z"/></g>
<g><path style="opacity:1" fill="#6e6b6e" d="M 203.5,396.5 C 203.5,399.833 203.5,403.167 203.5,406.5C 200.833,403.167 200.833,399.833 203.5,396.5 Z"/></g>
<g><path style="opacity:1" fill="#77262d" d="M 203.5,407.5 C 205.479,409.168 207.812,409.834 210.5,409.5C 210.5,411.5 210.5,413.5 210.5,415.5C 213.5,415.5 216.5,415.5 219.5,415.5C 219.5,413.5 219.5,411.5 219.5,409.5C 221.833,409.5 224.167,409.5 226.5,409.5C 226.5,412.167 226.5,414.833 226.5,417.5C 224.167,417.5 221.833,417.5 219.5,417.5C 219.5,444.833 219.5,472.167 219.5,499.5C 216.5,499.5 213.5,499.5 210.5,499.5C 210.5,472.167 210.5,444.833 210.5,417.5C 208.05,417.702 205.717,417.369 203.5,416.5C 203.5,413.5 203.5,410.5 203.5,407.5 Z"/></g>
<g><path style="opacity:1" fill="#df9299" d="M 203.5,416.5 C 205.717,417.369 208.05,417.702 210.5,417.5C 210.5,444.833 210.5,472.167 210.5,499.5C 208.167,499.5 205.833,499.5 203.5,499.5C 203.5,471.833 203.5,444.167 203.5,416.5 Z"/></g>
<g><path style="opacity:1" fill="#dc8e94" d="M 226.5,417.5 C 226.5,444.833 226.5,472.167 226.5,499.5C 224.167,499.5 221.833,499.5 219.5,499.5C 219.5,472.167 219.5,444.833 219.5,417.5C 221.833,417.5 224.167,417.5 226.5,417.5 Z"/></g>
<g><path style="opacity:1" fill="#efdfe0" d="M 226.5,417.5 C 237.5,417.5 248.5,417.5 259.5,417.5C 249.013,418.494 238.346,418.828 227.5,418.5C 227.5,445.5 227.5,472.5 227.5,499.5C 227.167,499.5 226.833,499.5 226.5,499.5C 226.5,472.167 226.5,444.833 226.5,417.5 Z"/></g>
</svg>
